<svg width="41" height="41" viewBox="0 0 41 41" fill="none" xmlns="http://www.w3.org/2000/svg">
<g clip-path="url(#clip0_2148_547)">
<path d="M38 25.5C38.0025 24.2483 37.6917 23.0159 37.096 21.9151C36.5002 20.8143 35.6384 19.8801 34.5891 19.1976C33.5398 18.5152 32.3364 18.1062 31.0886 18.008C29.8408 17.9098 28.5882 18.1254 27.4451 18.6352C26.3019 19.1451 25.3046 19.9329 24.5439 20.9269C23.7832 21.921 23.2834 23.0896 23.09 24.3262C22.8967 25.5629 23.0159 26.8283 23.4368 28.0071C23.8578 29.1859 24.567 30.2406 25.5 31.075V40.5L30.5 38.1325L35.5 40.5V31.075C36.2858 30.3742 36.9148 29.5154 37.3456 28.5546C37.7764 27.5939 37.9994 26.5529 38 25.5ZM33 36.55L30.5 35.3663L28 36.55V32.5625C29.6158 33.1447 31.3842 33.1447 33 32.5625V36.55ZM30.5 30.5C29.5111 30.5 28.5444 30.2068 27.7221 29.6574C26.8999 29.108 26.259 28.3271 25.8806 27.4134C25.5022 26.4998 25.4031 25.4945 25.5961 24.5246C25.789 23.5547 26.2652 22.6638 26.9645 21.9645C27.6637 21.2652 28.5546 20.789 29.5245 20.5961C30.4944 20.4032 31.4998 20.5022 32.4134 20.8806C33.327 21.2591 34.1079 21.8999 34.6573 22.7222C35.2067 23.5444 35.5 24.5111 35.5 25.5C35.4983 26.8256 34.971 28.0964 34.0337 29.0337C33.0964 29.9711 31.8256 30.4984 30.5 30.5Z" fill="#008747"/>
<path d="M31.75 6.75H28V5.5C27.998 4.83757 27.734 4.20283 27.2656 3.73442C26.7972 3.26601 26.1624 3.00198 25.5 3H15.5C14.8376 3.00198 14.2028 3.26601 13.7344 3.73442C13.266 4.20283 13.002 4.83757 13 5.5V6.75H9.25C8.58757 6.75198 7.95283 7.01601 7.48442 7.48442C7.01601 7.95283 6.75198 8.58757 6.75 9.25V35.5C6.75198 36.1624 7.01601 36.7972 7.48442 37.2656C7.95283 37.734 8.58757 37.998 9.25 38H20.5V35.5H9.25V9.25H13V13H28V9.25H31.75V15.5H34.25V9.25C34.248 8.58757 33.984 7.95283 33.5156 7.48442C33.0472 7.01601 32.4124 6.75198 31.75 6.75ZM25.5 10.5H15.5V5.5H25.5V10.5Z" fill="#008747"/>
</g>
<defs>
<clipPath id="clip0_2148_547">
<rect width="40" height="40" fill="white" transform="translate(0.5 0.5)"/>
</clipPath>
</defs>
</svg>
