<svg width="53" height="47" viewBox="0 0 53 47" fill="none" xmlns="http://www.w3.org/2000/svg">
<path d="M28.2186 2.302V6.31242H32.7447C33.5491 6.31242 34.3351 6.55534 34.9997 7.00679L38.8886 9.65138C38.9849 9.71554 39.0918 9.74839 39.2095 9.74992H48.6099C49.0657 9.74992 49.5029 9.931 49.8252 10.2533C50.1476 10.5757 50.3286 11.0128 50.3286 11.4687C50.3286 11.9245 50.1476 12.3617 49.8252 12.684C49.5029 13.0063 49.0657 13.1874 48.6099 13.1874H44.9936L52.7074 30.7874C52.8617 31.1393 52.8937 31.5328 52.7981 31.905C52.7026 32.2772 52.4851 32.6067 52.1803 32.8408C51.9511 33.0103 51.7143 33.1677 51.4699 33.3128C50.8898 33.6618 50.2846 33.9674 49.6595 34.2272C47.5866 35.094 45.3613 35.5374 43.1145 35.5312C40.8683 35.5409 38.6432 35.0982 36.5718 34.2295C35.9465 33.969 35.3414 33.6626 34.7613 33.3128C34.5176 33.173 34.2826 33.0185 34.0578 32.8499L34.0463 32.8408C33.7416 32.6067 33.5241 32.2772 33.4285 31.905C33.333 31.5328 33.3649 31.1393 33.5193 30.7874L41.2376 13.1874H39.2072C38.4028 13.1874 37.6168 12.9445 36.9522 12.493L33.0632 9.84846C32.9685 9.78432 32.8568 9.75 32.7424 9.74992H28.2186V42.9791H38.5013C38.9572 42.9791 39.3944 43.1602 39.7167 43.4825C40.039 43.8048 40.2201 44.242 40.2201 44.6978C40.2201 45.1537 40.039 45.5908 39.7167 45.9132C39.3944 46.2355 38.9572 46.4166 38.5013 46.4166H14.4984C14.0426 46.4166 13.6054 46.2355 13.2831 45.9132C12.9608 45.5908 12.7797 45.1537 12.7797 44.6978C12.7797 44.242 12.9608 43.8048 13.2831 43.4825C13.6054 43.1602 14.0426 42.9791 14.4984 42.9791H24.7811V9.74992H20.2551C20.1407 9.75 20.029 9.78432 19.9343 9.84846L16.0476 12.493C15.383 12.9445 14.597 13.1874 13.7926 13.1874H11.7622L19.4805 30.7874C19.6299 31.1293 19.664 31.5106 19.5776 31.8736C19.4912 32.2366 19.289 32.5616 19.0016 32.7995C18.8182 32.9485 18.6349 33.0883 18.2911 33.3105C17.7119 33.6864 17.1052 34.0181 16.4761 34.3028C14.4069 35.2448 12.1588 35.7294 9.88531 35.7237C7.61177 35.7294 5.36373 35.2448 3.29447 34.3028C2.66542 34.0181 2.0587 33.6864 1.47947 33.3105C1.23554 33.153 0.999237 32.984 0.771349 32.8041C0.485613 32.5639 0.284606 32.2382 0.197961 31.8752C0.111315 31.5121 0.143615 31.1308 0.290099 30.7874L8.00614 13.1874H4.39218C3.93634 13.1874 3.49917 13.0063 3.17684 12.684C2.85451 12.3617 2.67343 11.9245 2.67343 11.4687C2.67343 11.0128 2.85451 10.5757 3.17684 10.2533C3.49917 9.931 3.93634 9.74992 4.39218 9.74992H13.7926C13.9087 9.74992 14.0164 9.71707 14.1157 9.65138L18.0001 7.00679C18.6647 6.55304 19.453 6.31242 20.2574 6.31242H24.7811V2.302C24.7811 1.84616 24.9622 1.40899 25.2846 1.08666C25.6069 0.764334 26.0441 0.583252 26.4999 0.583252C26.9557 0.583252 27.3929 0.764334 27.7152 1.08666C28.0376 1.40899 28.2186 1.84616 28.2186 2.302ZM4.02552 30.8287C5.82867 31.7901 7.84186 32.2901 9.88531 32.2839C11.9288 32.2901 13.9419 31.7901 15.7451 30.8287L9.88531 17.4683L4.02552 30.8287ZM37.2776 30.7737C37.4655 30.8653 37.6756 30.9616 37.9078 31.0624C39.1224 31.5735 40.8984 32.0937 43.1145 32.0937C45.1347 32.0991 47.13 31.6478 48.9514 30.7737L43.1145 17.466L37.2776 30.7737Z" fill="#008747"/>
</svg>
